<svg width="770" height="220" viewBox="0 0 770 220" fill="none" xmlns="http://www.w3.org/2000/svg">
<g clip-path="url(#clip0_389_15285)">
<path d="M321.935 60.9921C330.113 60.9921 333.547 67.6901 333.547 79.387L305.925 79.7318C307.679 68.2073 313.337 61.066 321.91 61.066L321.935 60.9921ZM349.557 115.66C343.825 118.639 339.823 120.732 332.534 120.732C314.819 120.732 305.356 107.632 305.356 87.7595C305.323 86.116 305.381 84.4718 305.529 82.8345L347.927 82.6621C349.656 82.6621 350.002 80.7414 350.002 77.614C350.002 63.9964 341.676 57.5446 328.285 57.5446C306.048 57.5446 289.717 74.1173 289.717 94.7038C289.717 112.508 301.897 128.563 323.961 128.563C333.671 128.563 342.022 125.411 350.694 117.211C351.213 116.522 350.002 115.118 349.483 115.635L349.557 115.66ZM238.079 126.495C242.575 126.495 248.48 126.15 254.929 126.15C261.377 126.15 267.604 126.495 272.224 126.495C272.916 126.495 272.916 124.402 272.224 124.402C264.392 124.402 262.341 121.767 262.341 112.36V1.89208C262.341 1.17795 260.957 -0.0286784 259.87 -0.0286784C259.628 -0.0361105 259.389 0.0235645 259.179 0.143701L234.718 11.7421C233.854 12.0868 234.891 14.2046 235.756 13.8352C237.912 12.6531 240.295 11.9397 242.748 11.7421C246.751 11.7421 247.961 15.2142 247.961 23.242V112.36C247.961 121.767 245.713 124.402 238.079 124.402C237.362 124.402 237.362 126.495 238.079 126.495ZM185.625 126.495C190.147 126.495 196.052 126.15 202.476 126.15C208.899 126.15 215.175 126.495 219.771 126.495C220.462 126.495 220.462 124.402 219.771 124.402C211.938 124.402 209.888 121.767 209.888 112.36V1.89208C209.888 1.17795 208.479 -0.0286784 207.417 -0.0286784C207.175 -0.0361105 206.935 0.0235645 206.725 0.143701L182.339 11.7421C181.474 12.0868 182.512 14.2046 183.377 13.8352C185.496 12.6695 187.835 11.9566 190.245 11.7421C194.248 11.7421 195.459 15.2142 195.459 23.242V112.36C195.459 121.767 193.21 124.402 185.576 124.402C184.884 124.402 184.884 126.495 185.576 126.495H185.625ZM138.756 60.9921C146.934 60.9921 150.393 67.6163 150.393 79.3131L122.795 79.7318C124.524 68.2073 130.207 61.066 138.756 61.066V60.9921ZM166.378 115.66C160.646 118.639 156.668 120.732 149.355 120.732C131.64 120.732 122.177 107.632 122.177 87.7595C122.144 86.116 122.202 84.4718 122.35 82.8345L164.723 82.6621C166.452 82.6621 166.798 80.7414 166.798 77.614C166.798 63.9964 158.472 57.5446 145.105 57.5446C122.968 57.5693 106.636 74.1419 106.636 94.7284C106.636 112.532 118.792 128.588 140.831 128.588C150.541 128.588 158.892 125.436 167.589 117.236C168.108 116.546 166.872 115.143 166.354 115.66H166.378ZM44.3 123.047C32.317 123.047 30.5628 119.723 30.5628 112.237V69.9556C34.7383 69.6109 38.5679 69.6109 40.9892 69.6109C59.2479 69.6109 67.9201 81.9234 67.9201 98.9147C67.9201 114.281 60.8044 123.17 44.3 123.17V123.047ZM40.1245 20.287C52.4781 20.287 58.5314 28.1424 58.5314 41.0459C58.5314 54.4911 52.1075 65.1291 37.8761 65.1291C37.5302 65.1291 34.7383 65.1291 30.464 64.9568V31.91C30.464 22.3308 32.9347 20.4101 40.0257 20.4101L40.1245 20.287ZM54.2076 65.1291C67.5742 59.884 74.8628 50.4772 74.8628 39.4699C74.8628 25.3351 63.7446 16.7902 43.0894 16.7902C36.2949 16.7902 28.4874 17.8491 22.0635 17.8491C14.0584 17.8491 6.59682 17.3073 0.691801 17.3073C0.17295 17.3073 0.17295 19.4005 0.691801 19.4005C11.4641 19.4005 13.8854 21.4936 13.8854 31.4421V112.36C13.8854 122.481 11.1182 124.402 0.518851 124.402C-0.17295 124.402 -0.17295 126.495 0.518851 126.495C6.42387 126.495 14.0584 126.15 22.0635 126.15C30.0687 126.15 40.6433 127.184 47.2402 127.184C69.1307 127.184 85.4622 113.222 85.4622 94.7284C85.4622 78.8453 73.3063 67.3454 54.2076 65.1784V65.1291ZM512.921 17.4305C507.98 17.4305 505.114 17.9722 499.555 17.9722C489.128 17.9722 483.915 17.4305 476.973 17.4305C476.454 17.4305 476.454 19.5236 476.973 19.5236C487.572 19.5236 489.647 27.5514 482.186 39.7654L464.495 68.7244L439.294 30.0138C435.291 23.9068 436.823 19.5236 444.235 19.5236C444.754 19.5236 444.754 17.4305 444.235 17.4305C437.985 17.4305 426.347 17.9722 416.786 17.9722C413.129 17.9722 409.151 17.4305 405.495 17.4305C404.803 17.4305 404.803 19.5236 405.495 19.5236C410.436 19.5236 415.575 23.1927 423.901 36.1209L450.313 76.4074V112.36C450.313 122.481 448.238 124.402 436.947 124.402C436.428 124.402 436.428 126.495 436.947 126.495C442.852 126.495 450.486 126.15 458.492 126.15C466.991 126.15 474.279 126.495 480.184 126.495C480.703 126.495 480.703 124.402 480.184 124.402C468.72 124.402 466.991 122.481 466.991 112.36V73.3046L486.757 41.0212C494.391 28.2901 505.336 19.5482 512.798 19.5482C513.317 19.5482 513.317 17.4551 512.798 17.4551L512.921 17.4305ZM599.743 127.48C629.391 112.852 643.079 77.811 628.601 48.6796C616.099 23.5128 585.437 8.29458 554.775 23.439C529.574 35.8992 508.326 67.2469 525.127 101.156C538.889 128.76 569.847 142.255 599.743 127.48ZM603.152 121.102C581.064 132.035 554.059 117.531 539.062 87.3655C526.362 61.8786 529.945 40.578 550.501 30.4817C574.467 18.6371 599.916 32.7226 614.221 61.4846C628.131 89.4833 621.633 112.015 603.152 121.102ZM749.962 38.8296V87.7595C749.962 110.094 738.152 122.653 718.535 122.653C698.374 122.653 685.872 109.922 685.872 81.6525V31.91C685.872 22.06 687.774 19.5975 699.066 19.5975C699.782 19.5975 699.782 17.5043 699.066 17.5043C693.333 17.5043 686.045 18.0461 677.546 18.0461C669.046 18.0461 662.079 17.5043 656.174 17.5043C655.482 17.5043 655.482 19.5975 656.174 19.5975C667.465 19.5975 669.367 21.6906 669.367 31.6391V87.7595C669.367 113.394 687.255 128.933 712.803 128.933C738.35 128.933 755.349 113.049 755.349 87.5872V38.8296C755.349 26.788 760.29 19.6221 769.605 19.6221C770.123 19.6221 770.123 17.529 769.605 17.529C764.663 17.529 758.659 18.0707 752.581 18.0707C745.466 18.0707 739.734 17.529 734.347 17.529C733.656 17.529 733.656 19.6221 734.347 19.6221C744.403 19.6221 749.962 26.788 749.962 38.8296Z" fill="white"/>
<path d="M266.32 213.426C265.158 215.002 263.495 216.139 261.601 216.651C260.365 216.651 259.921 215.248 260.365 212.564L263.33 196.262C263.775 193.799 264.417 191.066 264.417 190.77C264.417 190.475 264.071 190.253 262.54 190.253C261.008 190.253 259.772 190.77 259.624 191.509V191.731C256.709 207.737 251.174 216.725 246.678 216.725C244.059 216.725 243.095 214.263 244.207 208.968L246.529 197.345C247.616 192.149 246.678 190.179 244.059 190.179C241.44 190.179 238.944 192.223 235.831 195.892C235.461 196.262 236.053 196.828 236.399 196.459C238.228 194.637 239.834 193.405 240.847 193.405C241.86 193.405 242.601 194.489 242.008 197.345L239.389 210.347C238.005 217.095 239.685 220 243.836 220C249 220 253.719 214.312 257.228 204.881L255.77 212.908C254.954 217.661 255.547 219.705 258.241 219.705C260.934 219.705 263.478 217.957 266.839 214.017C267.11 213.721 266.542 213.056 266.246 213.426H266.32ZM303.381 213.426C301.552 215.248 300.02 216.578 298.933 216.578C297.846 216.578 297.327 215.396 297.846 212.564L300.169 199.537C301.404 192.814 299.946 189.884 295.796 189.884C290.558 189.884 285.764 195.597 282.33 205.028L283.788 196.976C284.603 192.223 284.01 190.179 281.317 190.179C278.624 190.179 276.153 191.928 272.818 195.892C272.447 196.262 273.04 196.828 273.386 196.459C274.551 194.88 276.226 193.749 278.13 193.258C279.291 193.258 279.785 194.637 279.291 197.345L276.203 213.672C275.758 216.134 275.116 218.868 275.116 219.163C275.116 219.459 275.486 219.656 276.993 219.656C278.5 219.656 279.761 219.163 279.909 218.424C282.824 202.27 288.433 193.208 292.929 193.208C295.573 193.208 296.364 195.671 295.4 200.965L293.275 212.588C292.411 217.513 292.979 219.73 295.746 219.73C298.513 219.73 300.86 217.686 304.048 214.041C304.344 213.672 303.751 213.081 303.405 213.45L303.381 213.426ZM341.578 166.638C341.578 166.441 341.133 165.924 340.763 166.072L330.731 170.997C330.287 171.144 330.731 172.006 331.077 171.858C335.302 169.741 336.464 170.701 335.821 174.493L332.832 190.721C331.789 190.151 330.611 189.87 329.422 189.909C321.195 189.909 311.806 199.192 309.903 209.88C308.594 217.267 312.028 220.025 315.734 220.025C320.972 220.025 325.914 214.411 329.99 206.063L328.755 212.588C327.816 217.513 328.384 219.73 331.226 219.73C334.067 219.73 336.315 217.686 339.453 214.041C339.824 213.672 339.231 213.081 338.885 213.45C336.982 215.272 335.451 216.602 334.363 216.602C333.276 216.602 332.683 215.42 333.276 212.588L341.479 166.638H341.578ZM318.501 215.888C315.289 215.888 313.56 213.032 314.647 206.53C316.179 197.69 320.602 192.864 326.358 192.79C329.768 192.79 331.967 194.981 331.3 199.143C330.287 204.782 324.678 215.888 318.576 215.888H318.501ZM362.357 189.859C353.783 189.859 346.717 198.06 345.333 205.521C343.95 212.982 346.643 219.902 354.574 219.902C358.62 219.811 362.486 218.222 365.42 215.445C365.643 215.149 365.124 214.657 364.902 214.854C362.891 216.426 360.415 217.292 357.86 217.316C351.733 217.316 349.336 211.406 350.645 203.576C359.169 202.197 366.804 198.33 367.471 193.947C367.891 191.485 366.013 189.982 362.357 189.982V189.859ZM361.788 195.351C360.973 198.995 356.847 201.261 350.794 202.517C351.881 196.656 354.574 191.854 358.873 191.854C360.85 191.854 362.357 192.864 361.788 195.351ZM392.252 190.155C388.25 190.155 384.396 198.281 381.702 207.121L382.963 198.897C384.05 192.322 383.185 190.204 380.492 190.204C377.799 190.204 375.402 191.903 372.338 195.474C372.042 195.769 372.635 196.36 372.931 196.065C374.003 194.674 375.52 193.692 377.23 193.282C378.392 193.282 379.331 194.513 378.54 199.266L375.946 213.672C375.575 216.134 374.834 218.868 374.834 219.163C374.834 219.459 375.13 219.656 376.662 219.656C378.194 219.656 379.429 219.163 379.578 218.424C381.109 210.027 386.57 194.316 389.757 194.316C391.289 194.316 391.659 196.631 393.834 196.631C394.469 196.627 395.083 196.396 395.563 195.98C396.043 195.565 396.358 194.992 396.453 194.366C396.897 192.1 394.278 190.204 392.154 190.204L392.252 190.155ZM438.307 190.155C437.905 190.103 437.498 190.136 437.11 190.251C436.722 190.366 436.363 190.561 436.055 190.823C435.748 191.086 435.499 191.409 435.325 191.774C435.151 192.138 435.056 192.534 435.045 192.937C435.16 194.058 435.677 195.099 436.503 195.868C438.035 197.69 439.468 199.512 438.603 204.782C437.59 211.579 433.291 215.962 429.733 215.962C428.441 215.918 427.185 215.521 426.104 214.813C425.023 214.104 424.159 213.113 423.606 211.948C426.171 207.722 427.852 203.023 428.547 198.133C429.264 193.602 428.547 190.45 426.077 190.45C423.606 190.45 421.283 194.686 420.196 201.408C419.456 205.253 419.506 209.207 420.345 213.032C419.668 213.867 418.829 214.557 417.878 215.061C416.927 215.564 415.883 215.871 414.81 215.962C411.302 215.962 409.276 212.465 409.869 206.9C410.903 201.657 412.562 196.557 414.81 191.706C415.181 190.967 415.107 190.82 414.217 190.82H407.67C403.297 190.82 402.432 192.199 400.258 198.503C399.961 198.995 400.826 199.217 401.048 198.872C401.987 195.942 402.877 195.203 406.508 195.203H410.14C411.228 195.203 411.376 195.72 410.659 197.099C408.438 201.02 406.775 205.231 405.718 209.609C404.828 215.297 407.101 220.05 412.117 220.05C413.846 219.883 415.521 219.359 417.035 218.511C418.55 217.663 419.87 216.51 420.913 215.125C421.277 216.461 422.047 217.652 423.117 218.534C424.188 219.416 425.507 219.945 426.892 220.05C432.476 220.05 439.764 212.022 441.148 200.62C441.865 194.612 441.148 190.155 438.01 190.155H438.307ZM421.95 200.005C422.296 197.542 423.186 195.622 424.569 195.622C425.953 195.622 426.892 197.296 426.373 200.547C425.846 203.957 424.609 207.22 422.741 210.126C421.62 206.857 421.348 203.358 421.95 199.956V200.005ZM466.028 189.909C457.43 189.909 450.388 198.109 449.005 205.57C447.621 213.032 450.314 219.951 458.245 219.951C462.289 219.851 466.152 218.263 469.092 215.494C469.29 215.199 468.795 214.706 468.573 214.903C466.555 216.479 464.07 217.345 461.507 217.366C455.404 217.366 453.007 211.456 454.317 203.625C462.816 202.246 470.475 198.38 471.118 193.996C471.563 191.534 469.66 190.032 466.028 190.032V189.909ZM465.435 195.4C464.645 199.045 460.494 201.31 454.465 202.566C455.552 196.705 458.245 191.903 462.544 191.903C464.496 191.903 466.028 192.913 465.435 195.4ZM504.028 213.426C502.199 215.322 500.519 216.578 499.506 216.578C498.493 216.578 497.975 215.248 498.419 212.564L502.718 189.465C502.718 189.244 501.977 189.022 501.829 189.318C501.426 190.286 500.78 191.134 499.951 191.78C499.307 191.13 498.536 190.619 497.687 190.276C496.837 189.933 495.926 189.766 495.01 189.785C487.128 189.785 477.023 202.098 475.565 212.317C474.849 217.71 476.8 219.902 480.012 219.902C484.954 219.902 490.933 214.435 495.133 205.644L493.972 212.465C493.033 217.563 493.75 219.606 496.443 219.606C499.136 219.606 501.557 217.563 504.67 213.918C504.893 213.623 504.324 213.032 504.028 213.327V213.426ZM483.274 215.888C480.803 215.888 479.716 213.623 480.507 208.279C481.89 199.512 487.054 192.938 492.094 192.864C495.578 192.864 497.036 195.572 496.245 199.438C494.787 206.604 488.438 215.888 483.274 215.888ZM529.773 190.229C525.77 190.229 521.916 198.355 519.223 207.195L520.681 198.921C521.768 192.346 520.878 190.229 518.21 190.229C515.541 190.229 513.095 191.928 510.056 195.499C509.76 195.794 510.328 196.385 510.625 196.089C511.696 194.699 513.213 193.717 514.924 193.307C516.085 193.307 517.024 194.538 516.233 199.291L513.639 213.672C513.268 216.134 512.552 218.868 512.552 219.163C512.552 219.459 512.848 219.656 514.38 219.656C515.912 219.656 517.123 219.163 517.271 218.424C518.803 210.027 524.263 194.316 527.475 194.316C528.982 194.316 529.353 196.631 531.552 196.631C532.187 196.627 532.801 196.396 533.281 195.98C533.761 195.565 534.076 194.992 534.171 194.366C534.591 192.1 531.972 190.204 529.872 190.204L529.773 190.229Z" fill="white"/>
</g>
<defs>
<clipPath id="clip0_389_15285">
<rect width="770" height="220" fill="white"/>
</clipPath>
</defs>
</svg>
